<svg width="57" height="15" viewBox="0 0 57 15" fill="none" xmlns="http://www.w3.org/2000/svg">
<path d="M11.2625 1.11539C11.2625 0.499696 11.7979 0 12.4046 0C13.0114 0 13.5468 0.499696 13.5468 1.11539V4.32773C14.4659 3.65849 15.5902 3.39972 16.7948 3.39972C20.0875 3.39972 22.3361 5.7822 22.3361 8.87853C22.3361 11.9749 19.8555 14.4912 16.7948 14.4912C13.7342 14.4912 11.2625 11.9659 11.2625 8.86961V1.11539ZM20.0607 8.94099C20.0607 7.14744 18.6062 5.69297 16.8127 5.69297C15.0191 5.69297 13.5647 7.14744 13.5647 8.94099C13.5647 10.7345 15.0191 12.189 16.8127 12.189C18.6062 12.189 20.0607 10.7345 20.0607 8.94099Z" fill="#1D1D1B"/>
<path fill-rule="evenodd" clip-rule="evenodd" d="M8.53201 7.6916C8.50524 7.63807 8.4874 7.58452 8.46063 7.53099C7.90739 6.3799 6.68492 5.60359 5.30184 5.70174C3.65998 5.81774 2.34827 7.17406 2.28581 8.81592C2.21443 10.6719 3.69567 12.1978 5.53384 12.1978C6.55107 12.1978 7.46124 11.7338 8.05909 10.9932C8.97817 10.4935 10.0757 11.3412 9.80803 12.3673L9.77233 12.519C9.67418 12.635 9.5671 12.751 9.46002 12.8581C8.46063 13.8575 7.06862 14.4821 5.54276 14.4821C2.43751 14.4821 -0.0698978 11.9301 0.00148734 8.807C0.0728725 5.86236 2.46427 3.47096 5.40891 3.39957C8.02339 3.33711 10.2363 5.08604 10.8877 7.48637C10.9056 7.55775 10.9234 7.62914 10.9413 7.70052C10.9859 7.89683 11.0216 8.09314 11.0394 8.29838C11.0126 9.14608 10.4148 9.81531 9.6831 9.81531H5.78369C5.2483 9.81531 4.77537 9.43162 4.71291 8.90515C4.66829 8.55715 4.79322 8.23591 5.01629 8.01284C5.2126 7.82545 5.47137 7.70052 5.76584 7.70052H8.53201V7.6916Z" fill="#FCBE00"/>
<path fill-rule="evenodd" clip-rule="evenodd" d="M31.1343 7.69174C31.1076 7.6382 31.0897 7.58466 31.063 7.53112C30.5365 6.4425 29.4211 5.69295 28.1362 5.69295C26.3426 5.69295 24.8881 7.14743 24.8881 8.94098C24.8881 10.7345 26.3426 12.189 28.1362 12.189C29.1534 12.189 30.0636 11.725 30.6614 10.9844C31.5805 10.4847 32.678 11.3324 32.4103 12.3585L32.3747 12.5102C32.2765 12.6262 32.1694 12.7422 32.0623 12.8493C31.063 13.8487 29.6709 14.4733 28.1451 14.4733C25.0398 14.4733 22.5324 11.9213 22.6038 8.79821C22.6752 5.85357 25.0666 3.46217 28.0112 3.39078C30.6257 3.32832 32.8387 5.07725 33.49 7.47758C33.5079 7.54897 33.5257 7.62035 33.5436 7.69174C33.5882 7.88805 33.6239 8.08436 33.6417 8.28959C33.615 9.13729 33.0171 9.80652 32.2854 9.80652H28.3592C27.7792 9.80652 27.3063 9.3336 27.3063 8.75359C27.3063 8.45913 27.4223 8.20036 27.6186 8.00405C27.8149 7.81666 28.0737 7.69174 28.3682 7.69174H31.1343Z" fill="#1D1D1B"/>
<path fill-rule="evenodd" clip-rule="evenodd" d="M42.4132 7.69174C42.3864 7.6382 42.3686 7.58466 42.3418 7.53112C41.8153 6.4425 40.7 5.69295 39.415 5.69295C37.6215 5.69295 36.167 7.14743 36.167 8.94098C36.167 10.7345 37.6215 12.189 39.415 12.189C40.4323 12.189 41.3424 11.725 41.9403 10.9844C42.8594 10.4847 43.9569 11.3324 43.6892 12.3585L43.6535 12.5102C43.5554 12.6262 43.4483 12.7422 43.3412 12.8493C42.3418 13.8487 40.9498 14.4733 39.4239 14.4733C36.3187 14.4733 33.8113 11.9213 33.8827 8.79821C33.9541 5.85357 36.3455 3.46217 39.2901 3.39078C41.9046 3.32832 44.1175 5.07725 44.7689 7.47758C44.7868 7.54897 44.8046 7.62035 44.8224 7.69174C44.8671 7.88805 44.9028 8.08436 44.9206 8.28959C44.8938 9.13729 44.296 9.80652 43.5643 9.80652H39.6381C39.0581 9.80652 38.5852 9.3336 38.5852 8.75359C38.5852 8.45913 38.7012 8.20036 38.8975 8.00405C39.0938 7.81666 39.3526 7.69174 39.647 7.69174H42.4132Z" fill="#1D1D1B"/>
<path d="M47.7314 9.46724C47.7314 9.23524 47.9366 9.04785 48.1597 9.04785C48.3828 9.04785 48.588 9.23524 48.588 9.46724V10.6719C48.936 10.422 49.3554 10.3239 49.8105 10.3239C51.0419 10.3239 51.8896 11.2162 51.8896 12.3762C51.8896 13.5362 50.9616 14.482 49.8105 14.482C48.6594 14.482 47.7314 13.5362 47.7314 12.3762V9.46724ZM51.033 12.403C51.033 11.7337 50.4887 11.1805 49.8105 11.1805C49.1323 11.1805 48.588 11.7248 48.588 12.403C48.588 13.0722 49.1323 13.6254 49.8105 13.6254C50.4887 13.6254 51.033 13.0811 51.033 12.403Z" fill="#1D1D1B"/>
<path fill-rule="evenodd" clip-rule="evenodd" d="M55.2715 11.939C55.2625 11.9211 55.2536 11.8944 55.2447 11.8765C55.0484 11.4661 54.629 11.1894 54.1471 11.1894C53.4779 11.1894 52.9247 11.7337 52.9247 12.4119C52.9247 13.0811 53.469 13.6344 54.1471 13.6344C54.5308 13.6344 54.8699 13.4559 55.093 13.1882C55.441 13.0008 55.8515 13.3131 55.7444 13.7058L55.7265 13.7593C55.6908 13.8039 55.6462 13.8485 55.6105 13.8842C55.2358 14.259 54.7182 14.491 54.1382 14.491C52.9693 14.491 52.0324 13.5362 52.0591 12.3584C52.0859 11.2519 52.9871 10.3596 54.0847 10.3328C55.0662 10.306 55.8961 10.9664 56.137 11.8676C56.1459 11.8944 56.1548 11.9211 56.1548 11.9479C56.1727 12.0193 56.1816 12.0996 56.1905 12.171C56.1816 12.4833 55.9585 12.7421 55.6819 12.7421H54.2096C53.9954 12.7421 53.817 12.5636 53.817 12.3495C53.817 12.2424 53.8616 12.1442 53.933 12.0728C54.0044 12.0014 54.1025 11.9568 54.2096 11.9568H55.2715V11.939Z" fill="#1D1D1B"/>
<path d="M46.3215 14.4733C46.9523 14.4733 47.4637 13.9619 47.4637 13.3311C47.4637 12.7003 46.9523 12.189 46.3215 12.189C45.6907 12.189 45.1794 12.7003 45.1794 13.3311C45.1794 13.9619 45.6907 14.4733 46.3215 14.4733Z" fill="#FCBE00"/>
</svg>
