<svg width="38" height="32" viewBox="0 0 38 32" fill="none" xmlns="http://www.w3.org/2000/svg">
<path d="M14.0157 13.3567C14.3705 13.1677 14.7375 13.0026 15.1143 12.8623C15.2601 12.8106 15.3898 12.7213 15.4901 12.6034C15.5903 12.4855 15.6577 12.3432 15.6854 12.1909C15.713 12.0387 15.7 11.8818 15.6475 11.7362C15.5951 11.5905 15.5051 11.4613 15.3867 11.3617C14.2549 10.3544 13.4814 9.00641 13.1829 7.52102C12.6952 5.32385 13.5037 2.85644 15.2812 1.47662C16.4787 0.545023 18.0167 0.136351 19.5415 0.0286896C22.1144 -0.151478 24.7708 0.51646 26.8471 2.04569C27.1624 2.27648 27.4612 2.52904 27.7414 2.80151C27.9039 2.94226 28.0092 3.13772 28.0374 3.3509C28.0655 3.56408 28.0146 3.78018 27.8941 3.9583C27.7736 4.13642 27.5921 4.2642 27.3837 4.31745C27.1754 4.3707 26.9548 4.34572 26.7636 4.24724L26.7087 4.22527C25.7805 3.84249 24.7774 3.67619 23.7754 3.73901C22.7734 3.80183 21.7988 4.0921 20.9257 4.5878C19.3174 5.5194 18.1112 7.29032 18.2364 9.14692C18.3353 10.6014 19.2251 11.9241 20.3874 12.8074C20.7187 13.0557 21.07 13.2762 21.4377 13.4665C21.5954 13.5478 21.7249 13.675 21.809 13.8312C21.8931 13.9875 21.9279 14.1655 21.9089 14.342C21.8898 14.5184 21.8179 14.6849 21.7024 14.8197C21.5869 14.9544 21.4334 15.051 21.2619 15.0968C20.842 15.2211 20.4291 15.3678 20.0249 15.5363C18.6121 16.1295 17.3158 17.0897 16.5424 18.4124C15.769 19.735 15.5779 21.44 16.2524 22.8067C17.0719 24.4743 19.0274 25.3818 20.884 25.3312C22.7406 25.2807 24.4917 24.4062 25.9682 23.2791C27.4447 22.1519 28.7037 20.7699 30.0572 19.4956C31.4106 18.2212 32.8981 17.0303 34.6492 16.4195C35.4129 16.1516 36.2151 16.0099 37.0244 15.9999C37.2478 15.9751 37.4722 16.0369 37.6515 16.1726C37.8308 16.3083 37.9512 16.5075 37.9881 16.7293C38.0249 16.951 37.9754 17.1785 37.8497 17.3649C37.724 17.5512 37.5316 17.6824 37.3122 17.7312C36.8601 17.8854 36.4302 18.0981 36.0334 18.364C34.4339 19.4384 33.5265 21.2445 32.485 22.866C30.1516 26.5023 26.6933 29.5827 22.5121 30.6681C18.3309 31.7535 13.4246 30.5077 10.8452 27.0406C9.89955 25.7379 9.3035 24.2146 9.11388 22.616C8.92425 21.0175 9.14738 19.397 9.76196 17.9092C10.5813 15.9264 12.0929 14.3086 14.0157 13.3567Z" fill="#F7F7F0"/>
<path d="M12.1503 7.52101C12.5392 9.26117 13.4488 10.7904 14.8572 11.744C14.9379 11.797 15.0016 11.872 15.041 11.9601C15.0804 12.0482 15.0937 12.1458 15.0794 12.2412C15.065 12.3367 15.0237 12.426 14.9602 12.4987C14.8966 12.5714 14.8137 12.6244 14.721 12.6514C14.1171 12.8269 13.5326 13.0632 12.9764 13.3567C11.0549 14.3077 9.54467 15.925 8.72713 17.907C8.11194 19.3951 7.88848 21.016 8.07812 22.615C8.26776 24.214 8.86414 25.7377 9.81034 27.0406C11.7878 29.697 15.1231 31.0482 18.4584 31.0482H1.72697C1.26895 31.0482 0.829688 30.8663 0.505818 30.5424C0.181948 30.2185 0 29.7793 0 29.3213L0 25.1027C0.823389 25.1027 1.61305 24.7756 2.19528 24.1934C2.7775 23.6112 3.10459 22.8215 3.10459 21.9981C3.10401 21.1751 2.77666 20.386 2.1945 19.8043C1.61234 19.2225 0.823008 18.8957 0 18.8957L0 12.346L0.613009 12.3262C1.05007 12.3166 1.47768 12.1971 1.85632 11.9786C2.23497 11.7601 2.55244 11.4497 2.77941 11.076C4.22954 8.63717 2.51355 6.13021 0.219716 6.13021C0.149407 6.13021 0.0790979 6.13021 0 6.13021V1.72709C0 1.26907 0.181948 0.82981 0.505818 0.50594C0.829688 0.18207 1.26895 0.00012207 1.72697 0.00012207L18.9813 0.00012207C18.8209 0.00012207 18.6605 0.0111079 18.5001 0.0220937C16.9841 0.136346 15.4483 0.545019 14.2464 1.47662C12.4689 2.85643 11.6603 5.32385 12.1503 7.52101Z" fill="#F7F7F0"/>
</svg>
