<svg width="224" height="224" viewBox="0 0 224 224" fill="none" xmlns="http://www.w3.org/2000/svg">
<path d="M151.179 95.3491C151.179 95.3491 150.911 107.62 134.878 106.346C128.177 105.814 122.64 103.331 117.283 100.41C116.769 100.907 116.249 101.42 115.724 101.948C114.053 103.628 112.408 105.214 110.784 106.691C119.891 111.33 127.974 114.242 134.477 113.904C153.937 112.889 151.179 95.3491 151.179 95.3491Z" fill="#003893"/>
<path d="M103.096 84.0328C103.096 79.6368 99.5493 76.0762 95.1743 76.0762C90.7993 76.0762 87.2503 79.6368 87.2503 84.0328C87.2503 86.0348 87.9876 87.8618 89.2033 89.2618C87.2013 89.1265 85.0943 89.1405 82.8636 89.3342C74.9256 90.0295 68.824 95.1115 68.11 101.461C67.2023 109.513 74.8323 113.839 74.8323 113.839C74.8323 113.839 67.956 106.354 75.684 100.569C81.424 96.2712 89.7376 96.5628 102.814 102.653C105.091 100.527 107.212 98.2405 109.363 95.9492C106.017 94.1058 102.555 92.3838 98.7443 91.1355C101.327 89.8242 103.096 87.1362 103.096 84.0328Z" fill="#003893"/>
<path d="M117.283 100.41C116.769 100.907 116.249 101.42 115.724 101.948C114.053 103.628 112.408 105.214 110.784 106.691C112.838 107.737 114.837 108.693 116.779 109.547C118.375 108.091 119.992 106.528 121.634 104.878C122.164 104.346 122.684 103.833 123.202 103.329C121.175 102.461 119.217 101.465 117.283 100.41Z" fill="#003893"/>
<mask id="mask0_231_1117" style="mask-type:luminance" maskUnits="userSpaceOnUse" x="74" y="66" width="83" height="55">
<path d="M74.6667 66.8452H156.8V120.108H74.6667V66.8452Z" fill="white"/>
</mask>
<g mask="url(#mask0_231_1117)">
<path d="M155.851 87.7775C154.061 83.6592 149.908 80.9269 144.891 80.2525C146.226 78.8292 147.045 76.9112 147.045 74.8019C147.045 70.4059 143.498 66.8452 139.121 66.8452C134.746 66.8452 131.199 70.4059 131.199 74.8019C131.199 77.5762 132.615 80.0192 134.76 81.4425C114.975 87.4882 110.414 105.434 93.4713 112.182C78.5193 118.137 74.6693 106.489 74.6693 106.489C74.6693 106.489 77.1729 124.066 96.0683 119.285C102.956 117.542 110.509 111.545 118.613 103.399C131.638 90.3069 140.71 86.4335 148.349 89.1659C157.43 92.4115 153.051 101.596 153.051 101.596C153.051 101.596 159.078 95.2069 155.851 87.7775Z" fill="#DC143C"/>
</g>
<path d="M89.075 104.981C89.075 105.182 89.0563 105.38 89.0166 105.576C88.977 105.772 88.9186 105.964 88.844 106.148C88.767 106.332 88.6736 106.51 88.5616 106.675C88.4496 106.841 88.3236 106.995 88.1813 107.137C88.0413 107.28 87.8873 107.406 87.7193 107.518C87.5536 107.627 87.3763 107.723 87.192 107.8C87.0076 107.875 86.8163 107.933 86.6203 107.973C86.4243 108.012 86.226 108.031 86.0253 108.031C85.8246 108.031 85.6263 108.012 85.4303 107.973C85.2343 107.933 85.043 107.875 84.8586 107.8C84.672 107.723 84.497 107.627 84.3313 107.518C84.1633 107.406 84.0093 107.28 83.8693 107.137C83.727 106.995 83.601 106.841 83.489 106.675C83.377 106.51 83.2836 106.332 83.2066 106.148C83.1296 105.964 83.0736 105.772 83.034 105.576C82.9943 105.38 82.9756 105.182 82.9756 104.981C82.9756 104.781 82.9943 104.582 83.034 104.386C83.0736 104.19 83.1296 103.999 83.2066 103.815C83.2836 103.628 83.377 103.453 83.489 103.287C83.601 103.119 83.727 102.965 83.8693 102.823C84.0093 102.683 84.1633 102.557 84.3313 102.445C84.497 102.333 84.672 102.24 84.8586 102.163C85.043 102.086 85.2343 102.027 85.4303 101.99C85.6263 101.95 85.8246 101.932 86.0253 101.932C86.226 101.932 86.4243 101.95 86.6203 101.99C86.8163 102.027 87.0076 102.086 87.192 102.163C87.3763 102.24 87.5536 102.333 87.7193 102.445C87.8873 102.557 88.0413 102.683 88.1813 102.823C88.3236 102.965 88.4496 103.119 88.5616 103.287C88.6736 103.453 88.767 103.628 88.844 103.815C88.9186 103.999 88.977 104.19 89.0166 104.386C89.0563 104.582 89.075 104.781 89.075 104.981Z" fill="#F4BC33"/>
<mask id="mask1_231_1117" style="mask-type:luminance" maskUnits="userSpaceOnUse" x="85" y="100" width="3" height="2">
<path d="M85.4187 100.501H87.2107V101.547H85.4187V100.501Z" fill="white"/>
</mask>
<g mask="url(#mask1_231_1117)">
<path d="M85.4233 101.544L86.0253 100.501L86.6273 101.544H85.4233Z" fill="#F4BC33"/>
</g>
<path d="M83.7853 102.305V101.101L84.8283 101.703L83.7853 102.305Z" fill="#F4BC33"/>
<path d="M82.747 103.784L82.145 102.741H83.349L82.747 103.784Z" fill="#F4BC33"/>
<mask id="mask2_231_1117" style="mask-type:luminance" maskUnits="userSpaceOnUse" x="81" y="103" width="3" height="3">
<path d="M81.5453 103.936H83.0293V105.728H81.5453V103.936Z" fill="white"/>
</mask>
<g mask="url(#mask2_231_1117)">
<path d="M82.5883 105.583L81.5453 104.981L82.5883 104.379V105.583Z" fill="#F4BC33"/>
</g>
<path d="M83.349 107.221H82.145L82.747 106.178L83.349 107.221Z" fill="#F4BC33"/>
<path d="M84.8283 108.257L83.7853 108.862V107.655L84.8283 108.257Z" fill="#F4BC33"/>
<mask id="mask3_231_1117" style="mask-type:luminance" maskUnits="userSpaceOnUse" x="85" y="108" width="3" height="2">
<path d="M85.4187 108.117H87.2107V109.461H85.4187V108.117Z" fill="white"/>
</mask>
<g mask="url(#mask3_231_1117)">
<path d="M86.6273 108.418L86.0253 109.461L85.4233 108.418H86.6273Z" fill="#F4BC33"/>
</g>
<path d="M88.2654 107.655V108.862L87.2224 108.257L88.2654 107.655Z" fill="#F4BC33"/>
<path d="M89.3037 106.178L89.9057 107.221H88.7017L89.3037 106.178Z" fill="#F4BC33"/>
<mask id="mask4_231_1117" style="mask-type:luminance" maskUnits="userSpaceOnUse" x="89" y="103" width="2" height="3">
<path d="M89.0027 103.936H90.5054V105.728H89.0027V103.936Z" fill="white"/>
</mask>
<g mask="url(#mask4_231_1117)">
<path d="M89.4623 104.379L90.5053 104.981L89.4623 105.583V104.379Z" fill="#F4BC33"/>
</g>
<path d="M88.7017 102.741H89.9057L89.3037 103.784L88.7017 102.741Z" fill="#F4BC33"/>
<path d="M87.2224 101.703L88.2654 101.101V102.305L87.2224 101.703Z" fill="#F4BC33"/>
<mask id="mask5_231_1117" style="mask-type:luminance" maskUnits="userSpaceOnUse" x="134" y="93" width="8" height="8">
<path d="M134.997 93.3638H141.71V100.98H134.997V93.3638Z" fill="white"/>
</mask>
<g mask="url(#mask5_231_1117)">
<path d="M138.761 93.3987C138.563 93.5877 138.339 93.7067 138.143 93.8607C137.923 94.0357 137.751 94.2504 137.606 94.4837C137.415 94.7894 137.331 95.1394 137.247 95.4824C137.156 95.865 137.109 96.257 137.132 96.6537C137.146 96.9034 137.163 97.16 137.254 97.3934C137.352 97.6454 137.515 97.867 137.664 98.0934C137.923 98.4877 138.299 98.721 138.712 98.9194C139.085 99.099 139.473 99.218 139.876 99.2997C140.324 99.393 140.77 99.3767 141.216 99.288C141.328 99.2647 141.44 99.2367 141.552 99.211C141.61 99.1994 141.661 99.2157 141.689 99.2647C141.71 99.3044 141.703 99.3487 141.664 99.386C141.377 99.666 141.111 99.967 140.789 100.205C140.264 100.592 139.69 100.858 139.032 100.933C138.628 100.98 138.231 100.968 137.832 100.905C137.667 100.879 137.52 100.786 137.363 100.73C136.892 100.56 136.512 100.259 136.136 99.9414C135.63 99.5144 135.322 98.9684 135.133 98.3454C135.004 97.9207 134.99 97.482 135.004 97.0434C135.03 96.264 135.326 95.5757 135.765 94.948C136.131 94.423 136.607 94.0007 137.193 93.7207C137.583 93.534 137.998 93.4197 138.439 93.3964C138.542 93.3917 138.642 93.3637 138.761 93.3987Z" fill="#F4BC33"/>
</g>
<path d="M47.1944 140.786H45.4397V136.456H39.8957V140.786H38.1317V130.333H39.8957V134.869H45.4397V130.333H47.1944V140.786Z" fill="black"/>
<path d="M57.8101 138.425H52.5461L51.5381 140.786H49.7088L54.3195 130.333H56.1301L60.6941 140.786H58.8181L57.8101 138.425ZM57.1381 136.857L55.1688 132.218L53.1995 136.857H57.1381Z" fill="black"/>
<path d="M74.2519 140.786H72.6279L72.6092 132.974L69.3146 139.694H68.1572L64.8626 132.974V140.786H63.2012V130.333H65.2919L68.7452 137.277L72.1799 130.333H74.2519V140.786Z" fill="black"/>
<path d="M84.7684 140.786L82.8551 137.622C82.7547 137.629 82.5961 137.632 82.3791 137.632H79.8964V140.786H78.1324V130.333H82.3791C83.7091 130.333 84.7427 130.646 85.4777 131.266C86.2174 131.889 86.5884 132.767 86.5884 133.898C86.5884 134.738 86.4017 135.448 86.0284 136.026C85.6551 136.6 85.1184 137.023 84.4231 137.296L86.7657 140.786H84.7684ZM79.8964 136.054H82.3791C84.0707 136.054 84.9177 135.352 84.9177 133.945C84.9177 132.596 84.0707 131.92 82.3791 131.92H79.8964V136.054Z" fill="black"/>
<path d="M90.7755 131.807C91.8442 130.795 93.1602 130.286 94.7235 130.286C96.2845 130.286 97.5982 130.795 98.6622 131.807C99.7308 132.815 100.268 134.066 100.268 135.559C100.268 137.053 99.7308 138.31 98.6622 139.33C97.5982 140.352 96.2845 140.861 94.7235 140.861C93.1602 140.861 91.8442 140.352 90.7755 139.33C89.7115 138.31 89.1795 137.053 89.1795 135.559C89.1795 134.066 89.7115 132.815 90.7755 131.807ZM94.7422 131.873C93.7015 131.873 92.8125 132.232 92.0728 132.946C91.3378 133.655 90.9715 134.528 90.9715 135.559C90.9715 136.593 91.3402 137.47 92.0822 138.191C92.8288 138.915 93.7108 139.274 94.7328 139.274C95.7595 139.274 96.6368 138.915 97.3648 138.191C98.0928 137.47 98.4568 136.593 98.4568 135.559C98.4568 134.528 98.0928 133.655 97.3648 132.946C96.6368 132.232 95.7618 131.873 94.7422 131.873Z" fill="black"/>
<path d="M108.234 130.333H112.406C113.717 130.333 114.734 130.646 115.458 131.266C116.179 131.889 116.54 132.767 116.54 133.898C116.54 135.088 116.179 136.008 115.458 136.661C114.734 137.31 113.717 137.632 112.406 137.632H109.998V140.786H108.234V130.333ZM109.998 131.92V136.054H112.331C114.011 136.054 114.851 135.352 114.851 133.945C114.851 132.596 114.011 131.92 112.331 131.92H109.998Z" fill="black"/>
<path d="M126.15 138.425H120.886L119.878 140.786H118.049L122.66 130.333H124.47L129.034 140.786H127.158L126.15 138.425ZM125.478 136.857L123.509 132.218L121.54 136.857H125.478Z" fill="black"/>
<path d="M138.177 140.786L136.264 137.622C136.164 137.629 136.005 137.632 135.788 137.632H133.305V140.786H131.541V130.333H135.788C137.118 130.333 138.152 130.646 138.887 131.266C139.626 131.889 139.997 132.767 139.997 133.898C139.997 134.738 139.811 135.448 139.437 136.026C139.064 136.6 138.527 137.023 137.832 137.296L140.175 140.786H138.177ZM133.305 136.054H135.788C137.48 136.054 138.327 135.352 138.327 133.945C138.327 132.596 137.48 131.92 135.788 131.92H133.305V136.054Z" fill="black"/>
<path d="M145.221 140.786H143.457V130.333H145.221V140.786Z" fill="black"/>
<path d="M159.838 140.786H158.036L155.554 132.629L153.043 140.786H151.223L147.76 130.333H149.655L152.194 138.826L154.714 130.352L156.45 130.333L158.988 138.826L161.508 130.333H163.338L159.838 140.786Z" fill="black"/>
<path d="M172.422 138.425H167.158L166.15 140.786H164.321L168.932 130.333H170.742L175.306 140.786H173.43L172.422 138.425ZM171.75 136.857L169.781 132.218L167.812 136.857H171.75Z" fill="black"/>
<path d="M184.449 140.786L182.536 137.622C182.436 137.629 182.277 137.632 182.06 137.632H179.577V140.786H177.813V130.333H182.06C183.39 130.333 184.424 130.646 185.159 131.266C185.898 131.889 186.269 132.767 186.269 133.898C186.269 134.738 186.083 135.448 185.709 136.026C185.336 136.6 184.799 137.023 184.104 137.296L186.447 140.786H184.449ZM179.577 136.054H182.06C183.752 136.054 184.599 135.352 184.599 133.945C184.599 132.596 183.752 131.92 182.06 131.92H179.577V136.054Z" fill="black"/>
<path d="M54.1091 144.848V147.05C54.1091 147.543 53.9621 147.932 53.6705 148.217C53.3765 148.497 52.9751 148.637 52.4665 148.637C51.9625 148.637 51.5635 148.497 51.2718 148.217C50.9778 147.932 50.8331 147.543 50.8331 147.05V144.848H51.4678V147.05C51.4678 147.368 51.5565 147.617 51.7385 147.797C51.9181 147.979 52.1631 148.068 52.4758 148.068C52.7861 148.068 53.0288 147.979 53.2038 147.797C53.3835 147.617 53.4745 147.368 53.4745 147.05V144.848H54.1091Z" fill="black"/>
<path d="M58.7226 148.609H58.0973L56.0906 145.912V148.609H55.4559V144.848H56.0813L58.0973 147.554V144.848H58.7226V148.609Z" fill="black"/>
<path d="M60.7893 148.609H60.1546V144.848H60.7893V148.609Z" fill="black"/>
<path d="M64.7857 145.417H63.5911V148.609H62.9564V145.417H61.7711V144.848H64.7857V145.417Z" fill="black"/>
<path d="M66.4072 148.609H65.7726V144.848H66.4072V148.609Z" fill="black"/>
<path d="M71.1037 148.609H70.4784L68.4717 145.912V148.609H67.837V144.848H68.4624L70.4784 147.554V144.848H71.1037V148.609Z" fill="black"/>
<path d="M75.1117 146.761H75.6623V148.142C75.4687 148.291 75.2377 148.413 74.9717 148.506C74.7103 148.595 74.4537 148.637 74.2063 148.637C73.6463 148.637 73.175 148.455 72.797 148.086C72.4167 147.72 72.2277 147.269 72.2277 146.733C72.2277 146.191 72.419 145.741 72.8063 145.379C73.1913 145.013 73.6697 144.829 74.2437 144.829C74.505 144.829 74.7617 144.88 75.0183 144.978C75.2797 145.071 75.5037 145.2 75.6903 145.361L75.3263 145.827C75.0137 145.543 74.6543 145.398 74.2437 145.398C73.8563 145.398 73.5297 145.526 73.2637 145.781C73.0023 146.037 72.8717 146.35 72.8717 146.723C72.8717 147.104 73.0047 147.423 73.273 147.685C73.539 147.941 73.8633 148.067 74.2437 148.067C74.5353 148.067 74.8247 147.981 75.1117 147.806V146.761Z" fill="black"/>
<path d="M80.371 147.358V148.609H79.7457V147.377L78.3457 144.848H78.9804L80.0537 146.677L81.1084 144.848H81.7524L80.371 147.358Z" fill="black"/>
<path d="M82.9578 145.379C83.3428 145.013 83.8164 144.829 84.3764 144.829C84.9411 144.829 85.4148 145.013 85.7951 145.379C86.1801 145.741 86.3738 146.191 86.3738 146.733C86.3738 147.269 86.1801 147.72 85.7951 148.086C85.4148 148.455 84.9411 148.637 84.3764 148.637C83.8164 148.637 83.3428 148.455 82.9578 148.086C82.5774 147.72 82.3884 147.269 82.3884 146.733C82.3884 146.191 82.5774 145.741 82.9578 145.379ZM84.3858 145.398C84.0124 145.398 83.6904 145.526 83.4244 145.781C83.1631 146.037 83.0324 146.35 83.0324 146.723C83.0324 147.097 83.1654 147.414 83.4338 147.675C83.6998 147.937 84.0171 148.067 84.3858 148.067C84.7521 148.067 85.0671 147.937 85.3284 147.675C85.5898 147.414 85.7204 147.097 85.7204 146.723C85.7204 146.35 85.5898 146.037 85.3284 145.781C85.0671 145.526 84.7521 145.398 84.3858 145.398Z" fill="black"/>
<path d="M90.6932 144.848V147.05C90.6932 147.543 90.5462 147.932 90.2546 148.217C89.9606 148.497 89.5592 148.637 89.0506 148.637C88.5466 148.637 88.1476 148.497 87.8559 148.217C87.5619 147.932 87.4172 147.543 87.4172 147.05V144.848H88.0519V147.05C88.0519 147.368 88.1406 147.617 88.3226 147.797C88.5022 147.979 88.7472 148.068 89.0599 148.068C89.3702 148.068 89.6129 147.979 89.7879 147.797C89.9676 147.617 90.0586 147.368 90.0586 147.05V144.848H90.6932Z" fill="black"/>
<path d="M94.6067 145.417H93.412V148.609H92.7774V145.417H91.592V144.848H94.6067V145.417Z" fill="black"/>
<path d="M98.8602 148.609H98.2256V147.05H96.2282V148.609H95.5936V144.848H96.2282V146.481H98.2256V144.848H98.8602V148.609Z" fill="black"/>
<path d="M100.38 147.956C100.467 147.956 100.541 147.988 100.604 148.049C100.672 148.112 100.707 148.196 100.707 148.301C100.707 148.401 100.674 148.497 100.614 148.59L100.306 149.048H99.9882L100.194 148.581C100.093 148.52 100.044 148.427 100.044 148.301C100.044 148.203 100.075 148.121 100.138 148.058C100.198 147.991 100.28 147.956 100.38 147.956Z" fill="black"/>
<path d="M105.377 144.829C105.638 144.829 105.892 144.882 106.142 144.987C106.396 145.088 106.618 145.228 106.805 145.407L106.431 145.874C106.294 145.725 106.133 145.61 105.946 145.529C105.759 145.442 105.573 145.398 105.386 145.398C105.006 145.398 104.686 145.526 104.425 145.781C104.168 146.037 104.042 146.348 104.042 146.714C104.042 147.087 104.168 147.405 104.425 147.666C104.686 147.923 105.006 148.049 105.386 148.049C105.771 148.049 106.119 147.899 106.431 147.601L106.805 148.021C106.611 148.207 106.385 148.357 106.123 148.469C105.867 148.581 105.61 148.637 105.349 148.637C104.8 148.637 104.336 148.455 103.958 148.086C103.585 147.72 103.398 147.265 103.398 146.723C103.398 146.189 103.587 145.741 103.967 145.379C104.345 145.013 104.817 144.829 105.377 144.829Z" fill="black"/>
<path d="M110.582 145.417H108.529V146.434H110.367V147.004H108.529V148.04H110.647V148.609H107.894V144.848H110.582V145.417Z" fill="black"/>
<path d="M112.496 148.03H114.12V148.609H111.862V144.848H112.496V148.03Z" fill="black"/>
<path d="M117.861 145.417H115.808V146.434H117.647V147.004H115.808V148.04H117.927V148.609H115.173V144.848H117.861V145.417Z" fill="black"/>
<path d="M119.141 144.848H120.774C121.166 144.848 121.474 144.932 121.698 145.1C121.922 145.263 122.034 145.492 122.034 145.79C122.034 146.003 121.973 146.182 121.857 146.332C121.738 146.476 121.579 146.572 121.381 146.621C121.628 146.665 121.824 146.775 121.969 146.948C122.111 147.116 122.183 147.326 122.183 147.573C122.183 147.897 122.062 148.152 121.819 148.338C121.577 148.52 121.241 148.609 120.811 148.609H119.141V144.848ZM119.775 145.408V146.406H120.746C120.944 146.406 121.101 146.364 121.213 146.276C121.329 146.182 121.39 146.059 121.39 145.902C121.39 145.741 121.329 145.62 121.213 145.538C121.101 145.452 120.944 145.408 120.746 145.408H119.775ZM119.775 146.966V148.049H120.746C120.993 148.049 121.187 148.002 121.325 147.909C121.46 147.811 121.53 147.673 121.53 147.498C121.53 147.33 121.458 147.2 121.315 147.106C121.178 147.013 120.989 146.966 120.746 146.966H119.775Z" fill="black"/>
<path d="M125.766 148.609L125.076 147.47C125.038 147.47 124.982 147.47 124.908 147.47H124.012V148.609H123.377V144.848H124.908C125.386 144.848 125.757 144.96 126.018 145.184C126.284 145.408 126.42 145.723 126.42 146.126C126.42 146.432 126.35 146.691 126.214 146.901C126.084 147.106 125.89 147.256 125.636 147.349L126.485 148.609H125.766ZM124.012 146.901H124.908C125.51 146.901 125.813 146.649 125.813 146.145C125.813 145.66 125.51 145.417 124.908 145.417H124.012V146.901Z" fill="black"/>
<path d="M130.131 147.76H128.237L127.873 148.609H127.219L128.881 144.848H129.525L131.177 148.609H130.495L130.131 147.76ZM129.889 147.2L129.179 145.52L128.47 147.2H129.889Z" fill="black"/>
<path d="M134.68 145.417H133.485V148.609H132.85V145.417H131.665V144.848H134.68V145.417Z" fill="black"/>
<path d="M136.301 148.609H135.667V144.848H136.301V148.609Z" fill="black"/>
<path d="M140.998 148.609H140.372L138.366 145.912V148.609H137.731V144.848H138.356L140.372 147.554V144.848H140.998V148.609Z" fill="black"/>
<path d="M145.006 146.761H145.556V148.142C145.363 148.291 145.132 148.413 144.866 148.506C144.604 148.595 144.348 148.637 144.1 148.637C143.54 148.637 143.069 148.455 142.691 148.086C142.311 147.72 142.122 147.269 142.122 146.733C142.122 146.191 142.313 145.741 142.7 145.379C143.085 145.013 143.564 144.829 144.138 144.829C144.399 144.829 144.656 144.88 144.912 144.978C145.174 145.071 145.398 145.2 145.584 145.361L145.22 145.827C144.908 145.543 144.548 145.398 144.138 145.398C143.75 145.398 143.424 145.526 143.158 145.781C142.896 146.037 142.766 146.35 142.766 146.723C142.766 147.104 142.899 147.423 143.167 147.685C143.433 147.941 143.757 148.067 144.138 148.067C144.429 148.067 144.719 147.981 145.006 147.806V146.761Z" fill="black"/>
<path d="M151.992 148.609H151.366L149.36 145.912V148.609H148.725V144.848H149.35L151.366 147.554V144.848H151.992V148.609Z" fill="black"/>
<path d="M156.112 145.417H154.058V146.434H155.897V147.004H154.058V148.04H156.177V148.609H153.424V144.848H156.112V145.417Z" fill="black"/>
<path d="M157.391 144.848H158.894C159.365 144.848 159.729 144.96 159.986 145.184C160.247 145.408 160.378 145.723 160.378 146.126C160.378 146.556 160.247 146.889 159.986 147.125C159.729 147.356 159.365 147.47 158.894 147.47H158.026V148.609H157.391V144.848ZM158.026 145.417V146.901H158.866C159.468 146.901 159.771 146.649 159.771 146.145C159.771 145.66 159.468 145.417 158.866 145.417H158.026Z" fill="black"/>
<path d="M163.877 147.76H161.982L161.618 148.609H160.965L162.626 144.848H163.27L164.922 148.609H164.241L163.877 147.76ZM163.634 147.2L162.925 145.52L162.216 147.2H163.634Z" fill="black"/>
<path d="M166.493 148.03H168.117V148.609H165.859V144.848H166.493V148.03Z" fill="black"/>
<path d="M169.469 146.164H169.002V144.848H169.469V146.164Z" fill="black"/>
<path d="M171.961 144.819C172.451 144.819 172.895 144.948 173.287 145.202L173.016 145.762C172.636 145.533 172.269 145.417 171.915 145.417C171.728 145.417 171.579 145.452 171.467 145.519C171.359 145.589 171.308 145.685 171.308 145.809C171.308 145.935 171.357 146.04 171.457 146.126C171.555 146.215 171.681 146.28 171.831 146.322C171.98 146.366 172.141 146.42 172.316 146.481C172.496 146.544 172.661 146.609 172.811 146.677C172.96 146.747 173.084 146.854 173.184 147.003C173.282 147.153 173.333 147.335 173.333 147.545C173.333 147.876 173.198 148.14 172.932 148.338C172.671 148.532 172.33 148.627 171.915 148.627C171.628 148.627 171.348 148.576 171.075 148.469C170.806 148.364 170.573 148.217 170.375 148.03L170.645 147.489C170.837 147.664 171.047 147.797 171.271 147.89C171.499 147.983 171.719 148.03 171.924 148.03C172.148 148.03 172.318 147.99 172.437 147.909C172.561 147.829 172.624 147.717 172.624 147.573C172.624 147.449 172.573 147.344 172.475 147.255C172.374 147.162 172.251 147.097 172.101 147.059C171.952 147.017 171.786 146.966 171.607 146.91C171.432 146.849 171.271 146.786 171.121 146.723C170.972 146.656 170.846 146.551 170.748 146.406C170.648 146.257 170.599 146.077 170.599 145.865C170.599 145.547 170.722 145.295 170.972 145.109C171.219 144.917 171.551 144.819 171.961 144.819Z" fill="black"/>
<path d="M70.4075 151.997C70.6688 151.997 70.9232 152.05 71.1728 152.155C71.4272 152.256 71.6488 152.396 71.8355 152.575L71.4622 153.042C71.3245 152.893 71.1635 152.778 70.9768 152.697C70.7902 152.61 70.6035 152.566 70.4168 152.566C70.0365 152.566 69.7168 152.694 69.4555 152.949C69.1988 153.205 69.0728 153.516 69.0728 153.882C69.0728 154.255 69.1988 154.573 69.4555 154.834C69.7168 155.091 70.0365 155.217 70.4168 155.217C70.8018 155.217 71.1495 155.067 71.4622 154.769L71.8355 155.189C71.6418 155.375 71.4155 155.525 71.1542 155.637C70.8975 155.749 70.6408 155.805 70.3795 155.805C69.8312 155.805 69.3668 155.623 68.9888 155.254C68.6155 154.888 68.4288 154.433 68.4288 153.891C68.4288 153.357 68.6178 152.909 68.9982 152.547C69.3762 152.181 69.8475 151.997 70.4075 151.997Z" fill="black"/>
<path d="M76.1261 152.016V154.218C76.1261 154.711 75.9791 155.1 75.6874 155.385C75.3934 155.665 74.9921 155.805 74.4834 155.805C73.9794 155.805 73.5804 155.665 73.2888 155.385C72.9948 155.1 72.8501 154.711 72.8501 154.218V152.016H73.4848V154.218C73.4848 154.536 73.5734 154.785 73.7554 154.965C73.9351 155.147 74.1801 155.236 74.4928 155.236C74.8031 155.236 75.0458 155.147 75.2208 154.965C75.4004 154.785 75.4914 154.536 75.4914 154.218V152.016H76.1261Z" fill="black"/>
<path d="M78.1076 155.198H79.7316V155.777H77.4729V152.016H78.1076V155.198Z" fill="black"/>
<path d="M83.3512 152.585H82.1565V155.777H81.5219V152.585H80.3365V152.016H83.3512V152.585Z" fill="black"/>
<path d="M87.5394 152.016V154.218C87.5394 154.711 87.3924 155.1 87.1008 155.385C86.8068 155.665 86.4054 155.805 85.8968 155.805C85.3928 155.805 84.9938 155.665 84.7021 155.385C84.4081 155.1 84.2634 154.711 84.2634 154.218V152.016H84.8981V154.218C84.8981 154.536 84.9868 154.785 85.1688 154.965C85.3484 155.147 85.5934 155.236 85.9061 155.236C86.2164 155.236 86.4591 155.147 86.6341 154.965C86.8138 154.785 86.9048 154.536 86.9048 154.218V152.016H87.5394Z" fill="black"/>
<path d="M91.2756 155.777L90.585 154.638C90.5476 154.638 90.4916 154.638 90.417 154.638H89.521V155.777H88.8863V152.016H90.417C90.8953 152.016 91.2663 152.128 91.5276 152.352C91.7936 152.576 91.929 152.891 91.929 153.294C91.929 153.6 91.859 153.859 91.7236 154.069C91.593 154.274 91.3993 154.424 91.145 154.517L91.9943 155.777H91.2756ZM89.521 154.069H90.417C91.019 154.069 91.3223 153.817 91.3223 153.313C91.3223 152.828 91.019 152.585 90.417 152.585H89.521V154.069Z" fill="black"/>
<path d="M95.902 152.585H93.8487V153.602H95.6873V154.172H93.8487V155.208H95.9673V155.777H93.214V152.016H95.902V152.585Z" fill="black"/>
<path d="M97.2748 155.124C97.3611 155.124 97.4358 155.156 97.4988 155.217C97.5665 155.28 97.6015 155.364 97.6015 155.469C97.6015 155.569 97.5688 155.665 97.5081 155.758L97.2001 156.216H96.8828L97.0881 155.749C96.9878 155.688 96.9388 155.595 96.9388 155.469C96.9388 155.371 96.9691 155.289 97.0321 155.226C97.0928 155.159 97.1745 155.124 97.2748 155.124Z" fill="black"/>
<path d="M101.833 151.987C102.323 151.987 102.766 152.116 103.158 152.37L102.887 152.93C102.507 152.701 102.141 152.585 101.786 152.585C101.599 152.585 101.45 152.62 101.338 152.687C101.231 152.757 101.179 152.853 101.179 152.977C101.179 153.103 101.228 153.208 101.329 153.294C101.427 153.383 101.553 153.448 101.702 153.49C101.851 153.534 102.012 153.588 102.187 153.649C102.367 153.712 102.533 153.777 102.682 153.845C102.831 153.915 102.955 154.022 103.055 154.171C103.153 154.321 103.205 154.503 103.205 154.713C103.205 155.044 103.069 155.308 102.803 155.506C102.542 155.7 102.201 155.795 101.786 155.795C101.499 155.795 101.219 155.744 100.946 155.637C100.678 155.532 100.444 155.385 100.246 155.198L100.517 154.657C100.708 154.832 100.918 154.965 101.142 155.058C101.371 155.151 101.59 155.198 101.795 155.198C102.019 155.198 102.19 155.158 102.309 155.077C102.432 154.997 102.495 154.885 102.495 154.741C102.495 154.617 102.444 154.512 102.346 154.423C102.246 154.33 102.122 154.265 101.973 154.227C101.823 154.185 101.658 154.134 101.478 154.078C101.303 154.017 101.142 153.954 100.993 153.891C100.843 153.824 100.717 153.719 100.619 153.574C100.519 153.425 100.47 153.245 100.47 153.033C100.47 152.715 100.594 152.463 100.843 152.277C101.091 152.085 101.422 151.987 101.833 151.987Z" fill="black"/>
<path d="M104.385 152.016H105.888C106.359 152.016 106.723 152.128 106.98 152.352C107.241 152.576 107.372 152.891 107.372 153.294C107.372 153.724 107.241 154.057 106.98 154.293C106.723 154.524 106.359 154.638 105.888 154.638H105.02V155.777H104.385V152.016ZM105.02 152.585V154.069H105.86C106.462 154.069 106.765 153.817 106.765 153.313C106.765 152.828 106.462 152.585 105.86 152.585H105.02Z" fill="black"/>
<path d="M108.706 152.547C109.091 152.181 109.564 151.997 110.124 151.997C110.689 151.997 111.163 152.181 111.543 152.547C111.928 152.909 112.122 153.359 112.122 153.901C112.122 154.437 111.928 154.888 111.543 155.254C111.163 155.623 110.689 155.805 110.124 155.805C109.564 155.805 109.091 155.623 108.706 155.254C108.325 154.888 108.136 154.437 108.136 153.901C108.136 153.359 108.325 152.909 108.706 152.547ZM110.134 152.566C109.76 152.566 109.438 152.694 109.172 152.949C108.911 153.205 108.78 153.518 108.78 153.891C108.78 154.265 108.913 154.582 109.182 154.843C109.448 155.105 109.765 155.235 110.134 155.235C110.5 155.235 110.815 155.105 111.076 154.843C111.338 154.582 111.468 154.265 111.468 153.891C111.468 153.518 111.338 153.205 111.076 152.949C110.815 152.694 110.5 152.566 110.134 152.566Z" fill="black"/>
<path d="M115.629 155.777L114.938 154.638C114.901 154.638 114.845 154.638 114.77 154.638H113.874V155.777H113.24V152.016H114.77C115.249 152.016 115.62 152.128 115.881 152.352C116.147 152.576 116.282 152.891 116.282 153.294C116.282 153.6 116.212 153.859 116.077 154.069C115.946 154.274 115.753 154.424 115.498 154.517L116.348 155.777H115.629ZM113.874 154.069H114.77C115.372 154.069 115.676 153.817 115.676 153.313C115.676 152.828 115.372 152.585 114.77 152.585H113.874V154.069Z" fill="black"/>
<path d="M120.134 152.585H118.94V155.777H118.305V152.585H117.12V152.016H120.134V152.585Z" fill="black"/>
<path d="M122.353 151.987C122.843 151.987 123.286 152.116 123.678 152.37L123.408 152.93C123.027 152.701 122.661 152.585 122.306 152.585C122.12 152.585 121.97 152.62 121.858 152.687C121.751 152.757 121.7 152.853 121.7 152.977C121.7 153.103 121.749 153.208 121.849 153.294C121.947 153.383 122.073 153.448 122.222 153.49C122.372 153.534 122.533 153.588 122.708 153.649C122.887 153.712 123.053 153.777 123.202 153.845C123.352 153.915 123.475 154.022 123.576 154.171C123.674 154.321 123.725 154.503 123.725 154.713C123.725 155.044 123.59 155.308 123.324 155.506C123.062 155.7 122.722 155.795 122.306 155.795C122.019 155.795 121.739 155.744 121.466 155.637C121.198 155.532 120.965 155.385 120.766 155.198L121.037 154.657C121.228 154.832 121.438 154.965 121.662 155.058C121.891 155.151 122.11 155.198 122.316 155.198C122.54 155.198 122.71 155.158 122.829 155.077C122.953 154.997 123.016 154.885 123.016 154.741C123.016 154.617 122.964 154.512 122.866 154.423C122.766 154.33 122.642 154.265 122.493 154.227C122.344 154.185 122.178 154.134 121.998 154.078C121.823 154.017 121.662 153.954 121.513 153.891C121.364 153.824 121.238 153.719 121.14 153.574C121.039 153.425 120.99 153.245 120.99 153.033C120.99 152.715 121.114 152.463 121.364 152.277C121.611 152.085 121.942 151.987 122.353 151.987Z" fill="black"/>
<path d="M129.45 155.879L128.862 155.301C128.512 155.637 128.136 155.805 127.732 155.805C127.389 155.805 127.107 155.707 126.883 155.506C126.659 155.301 126.547 155.049 126.547 154.75C126.547 154.507 126.617 154.309 126.762 154.153C126.904 153.992 127.102 153.842 127.359 153.705C127.116 153.383 126.995 153.093 126.995 152.837C126.995 152.589 127.084 152.386 127.266 152.23C127.445 152.069 127.681 151.987 127.975 151.987C128.255 151.987 128.481 152.062 128.656 152.211C128.836 152.356 128.927 152.545 128.927 152.781C128.927 152.9 128.901 153.012 128.852 153.117C128.801 153.224 128.726 153.32 128.628 153.406C128.535 153.488 128.444 153.555 128.358 153.611C128.269 153.667 128.155 153.733 128.012 153.807C128.192 154.008 128.456 154.279 128.806 154.619C128.929 154.428 129.041 154.204 129.142 153.947L129.543 154.246C129.424 154.526 129.293 154.764 129.151 154.955L129.767 155.553L129.45 155.879ZM127.49 152.827C127.49 153.021 127.583 153.245 127.77 153.499C127.987 153.383 128.152 153.271 128.264 153.163C128.381 153.058 128.442 152.93 128.442 152.781C128.442 152.657 128.397 152.557 128.311 152.482C128.229 152.407 128.12 152.37 127.984 152.37C127.835 152.37 127.714 152.414 127.62 152.501C127.532 152.589 127.49 152.697 127.49 152.827ZM127.751 155.338C128.012 155.338 128.269 155.217 128.526 154.974C128.096 154.545 127.791 154.227 127.611 154.022C127.436 154.122 127.298 154.225 127.2 154.33C127.107 154.437 127.06 154.561 127.06 154.703C127.06 154.89 127.126 155.044 127.256 155.161C127.387 155.28 127.55 155.338 127.751 155.338Z" fill="black"/>
<path d="M135.255 152.585H133.201V153.602H135.04V154.172H133.201V155.208H135.32V155.777H132.567V152.016H135.255V152.585Z" fill="black"/>
<path d="M138.214 155.777H137.552L136.058 152.016H136.74L137.897 155.077L139.073 152.016H139.736L138.214 155.777Z" fill="black"/>
<path d="M143.373 152.585H141.319V153.602H143.158V154.172H141.319V155.208H143.438V155.777H140.685V152.016H143.373V152.585Z" fill="black"/>
<path d="M147.919 155.777H147.293L145.287 153.08V155.777H144.652V152.016H145.277L147.293 154.722V152.016H147.919V155.777Z" fill="black"/>
<path d="M151.917 152.585H150.723V155.777H150.088V152.585H148.903V152.016H151.917V152.585Z" fill="black"/>
<path d="M154.136 151.987C154.626 151.987 155.07 152.116 155.462 152.37L155.191 152.93C154.811 152.701 154.444 152.585 154.09 152.585C153.903 152.585 153.754 152.62 153.642 152.687C153.534 152.757 153.483 152.853 153.483 152.977C153.483 153.103 153.532 153.208 153.632 153.294C153.73 153.383 153.856 153.448 154.006 153.49C154.155 153.534 154.316 153.588 154.491 153.649C154.671 153.712 154.836 153.777 154.986 153.845C155.135 153.915 155.259 154.022 155.359 154.171C155.457 154.321 155.508 154.503 155.508 154.713C155.508 155.044 155.373 155.308 155.107 155.506C154.846 155.7 154.505 155.795 154.09 155.795C153.803 155.795 153.523 155.744 153.25 155.637C152.981 155.532 152.748 155.385 152.55 155.198L152.82 154.657C153.012 154.832 153.222 154.965 153.446 155.058C153.674 155.151 153.894 155.198 154.099 155.198C154.323 155.198 154.493 155.158 154.612 155.077C154.736 154.997 154.799 154.885 154.799 154.741C154.799 154.617 154.748 154.512 154.65 154.423C154.549 154.33 154.426 154.265 154.276 154.227C154.127 154.185 153.961 154.134 153.782 154.078C153.607 154.017 153.446 153.954 153.296 153.891C153.147 153.824 153.021 153.719 152.923 153.574C152.823 153.425 152.774 153.245 152.774 153.033C152.774 152.715 152.897 152.463 153.147 152.277C153.394 152.085 153.726 151.987 154.136 151.987Z" fill="black"/>
<mask id="mask6_231_1117" style="mask-type:luminance" maskUnits="userSpaceOnUse" x="37" y="163" width="51" height="4">
<path d="M37.345 163.303H87.073V166.913H37.345V163.303Z" fill="white"/>
</mask>
<g mask="url(#mask6_231_1117)">
<path d="M37.345 163.303H87.073V166.913H37.345V163.303Z" fill="#2D2926"/>
</g>
<mask id="mask7_231_1117" style="mask-type:luminance" maskUnits="userSpaceOnUse" x="87" y="163" width="50" height="4">
<path d="M87.136 163.303H136.864V166.913H87.136V163.303Z" fill="white"/>
</mask>
<g mask="url(#mask7_231_1117)">
<path d="M87.136 163.303H136.864V166.913H87.136V163.303Z" fill="#FFCD00"/>
</g>
<mask id="mask8_231_1117" style="mask-type:luminance" maskUnits="userSpaceOnUse" x="136" y="163" width="51" height="4">
<path d="M136.864 163.303H186.592V166.913H136.864V163.303Z" fill="white"/>
</mask>
<g mask="url(#mask8_231_1117)">
<path d="M136.864 163.303H186.592V166.913H136.864V163.303Z" fill="#C8102E"/>
</g>
</svg>
